<svg width="29" height="38" viewBox="0 0 29 38" fill="none" xmlns="http://www.w3.org/2000/svg">
<path d="M7.51389 15.5281L7.47639 15.4415L7.42333 15.3633L1.03149 5.95135C0.999026 5.90221 0.998955 5.87161 1.0005 5.85681C1.00219 5.84064 1.01134 5.79659 1.07082 5.73606L1.07135 5.73552C2.4442 4.33636 4.38422 3.13836 6.70881 2.30285L6.7101 2.30239C9.0668 1.45168 11.7641 1 14.5042 1C17.2446 1 19.942 1.45176 22.2878 2.29811L22.2889 2.29851C24.6135 3.13402 26.5535 4.33202 27.9264 5.73118L27.9269 5.73172C27.9886 5.79445 27.9979 5.83996 27.9995 5.85504C28.0009 5.86756 28.0017 5.89498 27.9695 5.94225L27.9683 5.944L21.558 15.3941L21.5208 15.449L21.4911 15.5083C21.345 15.8007 20.6957 17.1734 20.0602 19.825C19.4132 22.5234 18.6582 27.1122 18.6582 33.7889C18.6582 35.0144 18.054 35.7307 17.5316 36.1299L17.5316 36.1299L17.5245 36.1354C16.8351 36.6722 15.8528 37 14.7405 37C13.6226 37 12.5453 36.6586 11.7844 36.1064L11.7832 36.1055C10.9421 35.4971 10.5274 34.6779 10.5274 33.7889C10.5274 27.7614 9.7099 23.1192 9.01727 20.2728L9.01723 20.2726C8.35815 17.5662 7.68941 15.934 7.51389 15.5281ZM16.4592 35.7891L16.4597 35.7888C17.2476 35.1771 17.3457 34.2556 17.3457 33.7889C17.3457 24.8212 18.6833 19.5245 19.5403 17.0455L19.999 15.7188H18.5952H10.3596H8.96251L9.41297 17.0412C10.3216 19.7089 11.8453 25.4417 11.8453 33.7889C11.8453 34.8162 12.4055 35.4977 13.0418 35.8731C13.6288 36.2195 14.2923 36.3241 14.7458 36.3241C15.3457 36.3241 15.9719 36.167 16.4592 35.7891ZM26.1658 6.60289L26.6762 5.85096L25.9763 5.27122C23.2234 2.99071 18.9341 1.67587 14.5042 1.67587C10.0744 1.67587 5.78511 2.99071 3.03216 5.27122L2.33167 5.85149L2.84318 6.60365L8.28173 14.6009L8.57936 15.0386H9.10864H12.0453H13.4601L12.988 13.7049L12.1193 11.2508C12.1851 11.2408 12.2481 11.2517 12.2913 11.2712C12.2948 11.2727 12.2979 11.2742 12.3006 11.2756L13.395 14.3718L13.6306 15.0386H14.3378H14.6814H15.3886L15.6242 14.3718L16.718 11.2774C16.7204 11.2762 16.7232 11.2749 16.7262 11.2735C16.7692 11.2543 16.8324 11.2428 16.8996 11.2515L16.0312 13.7049L15.5591 15.0386H16.9739H19.9106H20.4404L20.738 14.6002L26.1658 6.60289ZM12.3188 11.2869C12.3187 11.287 12.3177 11.2862 12.316 11.2846C12.318 11.286 12.3189 11.2869 12.3188 11.2869ZM16.6988 11.2891C16.6987 11.289 16.6996 11.2883 16.7015 11.2869C16.6999 11.2884 16.6989 11.2891 16.6988 11.2891Z" stroke="white" stroke-width="2"/>
</svg>
