<svg width="35" height="35" viewBox="0 0 35 35" fill="none" xmlns="http://www.w3.org/2000/svg">
<g clip-path="url(#clip0_2_109)">
<path d="M30.6617 14.6924H30.6617V14.699C30.6617 16.3768 29.3714 17.6681 27.6993 17.6681C26.0271 17.6681 24.7369 16.3768 24.7369 14.699C24.7369 13.0212 26.0271 11.7298 27.6993 11.7298C29.3776 11.7298 30.6836 13.0258 30.6617 14.6924ZM25.0705 14.699C25.0705 16.182 26.2168 17.3319 27.6993 17.3319C29.2114 17.3319 30.328 16.178 30.328 14.699C30.328 13.216 29.1818 12.0661 27.6993 12.0661C26.2168 12.0661 25.0705 13.216 25.0705 14.699ZM4.2446 14.699C4.2446 13.0212 5.53486 11.7298 7.207 11.7298C8.87914 11.7298 10.1694 13.0212 10.1694 14.699C10.1694 16.3768 8.87914 17.6681 7.207 17.6681C5.53486 17.6681 4.2446 16.3768 4.2446 14.699ZM4.57826 14.699C4.57826 16.182 5.72451 17.3319 7.207 17.3319C8.68949 17.3319 9.83573 16.182 9.83573 14.699C9.83573 13.216 8.68949 12.0661 7.207 12.0661C5.72451 12.0661 4.57826 13.216 4.57826 14.699ZM22.1338 4.25183C23.8059 4.25183 25.0962 5.54321 25.0962 7.221C25.0962 8.89636 23.7827 10.1902 22.1338 10.1902C20.4617 10.1902 19.1714 8.89879 19.1714 7.221C19.1714 5.54321 20.4617 4.25183 22.1338 4.25183ZM19.4794 7.221C19.4794 8.704 20.6257 9.85389 22.1081 9.85389C23.6202 9.85389 24.7369 8.70001 24.7369 7.221C24.7369 5.73799 23.5906 4.5881 22.1081 4.5881C20.6257 4.5881 19.4794 5.73799 19.4794 7.221ZM9.83573 7.221C9.83573 5.54321 11.126 4.25183 12.7981 4.25183C14.4703 4.25183 15.7605 5.54321 15.7605 7.221C15.7605 8.89879 14.4703 10.1902 12.7981 10.1902C11.126 10.1902 9.83573 8.89879 9.83573 7.221ZM10.1694 7.221C10.1694 8.704 11.3156 9.85389 12.7981 9.85389C14.2806 9.85389 15.4269 8.704 15.4269 7.221C15.4269 5.73799 14.2806 4.5881 12.7981 4.5881C11.3156 4.5881 10.1694 5.73799 10.1694 7.221Z" stroke="white"/>
<path d="M11.2092 32.9125L11.216 32.9155L11.2228 32.9183C13.1562 33.7144 15.2727 34.138 17.466 34.138C18.9484 34.138 20.0947 32.9881 20.0947 31.5051C20.0947 30.8368 19.8401 30.2278 19.4228 29.7776L19.4165 29.7708L19.41 29.7643C18.8914 29.2447 18.6071 28.5509 18.6071 27.779C18.6071 26.1012 19.8974 24.8098 21.5695 24.8098H24.9293C29.9768 24.8098 34.0725 20.7047 34.0725 15.6498C34.0725 7.45487 26.5575 0.888012 17.4667 0.887665C8.28837 0.861559 0.859374 8.33449 0.859374 17.5C0.859374 21.8131 2.35741 25.57 5.04796 28.5492C5.0552 28.6385 5.03474 28.6779 5.03057 28.6845C5.02774 28.689 5.02433 28.6931 5.01456 28.6984C5.00329 28.7044 4.97541 28.7159 4.92222 28.7188L4.92221 28.7186L4.90841 28.7198C4.91026 28.7196 4.90955 28.7195 4.90631 28.7187C4.89459 28.7159 4.84978 28.7052 4.77328 28.6588C4.73421 28.6351 4.70005 28.6101 4.67578 28.5909C4.66395 28.5816 4.65524 28.5742 4.65032 28.57L4.64641 28.5665L4.64633 28.5665L4.64605 28.5662L4.63902 28.5597L4.62929 28.5516L4.50774 28.4501C4.44234 28.3734 4.38106 28.3009 4.31894 28.2273L4.3186 28.2269C4.25071 28.1465 4.18179 28.0649 4.1069 27.9773C1.86666 25.0801 0.500061 21.4384 0.500061 17.5C0.500061 8.13866 8.09958 0.525698 17.4403 0.525698C26.8349 0.525698 34.3805 7.3674 34.3805 15.6498C34.3805 20.8995 30.1152 25.1718 24.8781 25.1718H21.5695C20.087 25.1718 18.9408 26.3217 18.9408 27.8047C18.9408 28.4731 19.1954 29.082 19.6127 29.5322L19.619 29.539L19.6255 29.5456C20.144 30.0651 20.4284 30.7589 20.4284 31.5308C20.4284 33.2086 19.1381 34.5 17.466 34.5C14.427 34.5 11.5829 33.7034 9.12109 32.3006C9.09694 32.2396 9.08284 32.18 9.08229 32.1351C9.08204 32.1144 9.08478 32.1041 9.0858 32.101C9.08625 32.0997 9.08627 32.0991 9.08895 32.0962C9.09245 32.0924 9.12492 32.059 9.22947 32.0282L11.2092 32.9125Z" stroke="white"/>
</g>
<defs>
<clipPath id="clip0_2_109">
<rect width="35" height="35" fill="white"/>
</clipPath>
</defs>
</svg>
