<svg width="16" height="16" viewBox="0 0 16 16" fill="none" xmlns="http://www.w3.org/2000/svg">
<g clip-path="url(#clip0_38_2)">
<path d="M5.99771 4.01829L5.99009 3.94515C5.77105 2.31886 7.13486 1.07391 8.87695 1.76419C9.59314 2.048 10.3509 2.48115 10.8522 2.91086C10.9481 2.99305 11.0075 3.10999 11.0172 3.23594C11.0269 3.36189 10.9862 3.48655 10.904 3.58248C10.8218 3.67841 10.7049 3.73776 10.5789 3.74748C10.453 3.7572 10.3283 3.71648 10.2324 3.63429C9.81714 3.27848 9.15048 2.89676 8.52571 2.64953C7.52381 2.25257 6.83962 2.84724 6.92648 3.75315L6.93409 3.81829C7.04 4.61181 6.71886 5.32153 6.02552 5.60991C5.11771 5.98705 4.12876 5.696 3.69524 4.74515C3.56457 4.45867 3.14857 4.2221 2.72114 4.23886C2.19352 4.25943 1.71886 4.63581 1.4061 5.45219C0.345524 8.21791 1.64457 11.2587 4.38743 12.3451C5.456 12.7688 6.69371 12.8225 7.84648 12.528C7.96883 12.4967 8.09861 12.5152 8.20728 12.5796C8.31594 12.644 8.39458 12.7489 8.4259 12.8712C8.45723 12.9936 8.43866 13.1234 8.37429 13.232C8.30992 13.3407 8.20502 13.4193 8.08267 13.4507C6.74095 13.7935 5.29867 13.7307 4.03695 13.2305C0.804952 11.9505 -0.728762 8.36076 0.516952 5.11124C0.96 3.95505 1.75619 3.32343 2.68419 3.28724C3.456 3.25715 4.20724 3.66743 4.52648 4.27848L4.56152 4.34972C4.76533 4.79657 5.19543 4.92305 5.66019 4.73029C5.90019 4.63048 6.02667 4.37715 5.99771 4.01791V4.01829ZM12.9116 0.296765C12.978 0.192185 13.0826 0.117595 13.203 0.0888261C13.3235 0.0600576 13.4505 0.0793751 13.557 0.142679C13.6635 0.205983 13.7411 0.308289 13.7734 0.427885C13.8056 0.547481 13.7901 0.674951 13.7299 0.783241L13.6472 0.928765L13.5962 1.02172C13.4857 1.224 13.3623 1.4621 13.2293 1.73372C12.8084 2.59651 12.4339 3.4812 12.1074 4.384C12.0491 4.54438 11.992 4.70629 11.936 4.86972C11.501 6.13829 11.253 7.48572 11.1467 8.77829C11.1363 8.90418 11.0764 9.0208 10.98 9.10249C10.8837 9.18419 10.7588 9.22426 10.633 9.21391C10.5071 9.20355 10.3904 9.14361 10.3087 9.04727C10.2271 8.95093 10.187 8.82608 10.1973 8.70019C10.3097 7.33486 10.5714 5.91238 11.035 4.56076C11.093 4.39162 11.152 4.22438 11.2126 4.05867C11.5507 3.12381 11.9385 2.20771 12.3745 1.31429L12.5101 1.04153C12.5764 0.91086 12.64 0.788955 12.7006 0.675813L12.8621 0.382098C12.8827 0.345908 12.899 0.317336 12.9116 0.296765ZM15.4735 0.707051C15.5359 0.711681 15.5968 0.72856 15.6526 0.756724C15.7085 0.784889 15.7583 0.823786 15.7991 0.871193C15.8399 0.9186 15.871 0.973588 15.8906 1.03301C15.9102 1.09244 15.9178 1.15514 15.9131 1.21753L15.8926 1.43505C15.8878 1.47875 15.8829 1.52244 15.8777 1.5661L15.8419 1.8541C15.8152 2.05524 15.7832 2.27391 15.7448 2.50857C15.562 3.61121 15.314 4.70202 15.0019 5.77524C14.7589 6.61524 14.4232 7.46515 14.0187 8.30857C13.7288 8.91158 13.41 9.5002 13.0632 10.0724L12.9299 10.2895C12.8872 10.3581 12.8453 10.4236 12.8057 10.4857L12.6389 10.7379C12.6046 10.7903 12.5604 10.8354 12.5088 10.8707C12.4571 10.906 12.399 10.9308 12.3378 10.9436C12.2765 10.9565 12.2134 10.9571 12.1519 10.9455C12.0904 10.934 12.0318 10.9104 11.9794 10.8762C11.927 10.842 11.8819 10.7978 11.8466 10.7461C11.8113 10.6945 11.7866 10.6364 11.7737 10.5751C11.7609 10.5139 11.7602 10.4507 11.7718 10.3892C11.7834 10.3277 11.8069 10.2691 11.8411 10.2168L11.9501 10.0541L12.0629 9.87886C12.4661 9.2394 12.8325 8.57737 13.16 7.896C13.5432 7.09753 13.8598 6.296 14.0869 5.51048C14.3884 4.4738 14.6282 3.42014 14.805 2.35505C14.8415 2.13029 14.8724 1.92115 14.8975 1.73029L14.9318 1.45677C14.9497 1.30286 14.9592 1.19772 14.9634 1.14667C14.9721 1.02914 15.0241 0.919014 15.1094 0.837599C15.1946 0.756184 15.307 0.709262 15.4248 0.705908L15.4735 0.707051Z" fill="#4F54D3"/>
<path d="M9.296 10.0251C9.19924 10.1093 9.07962 10.2537 8.96838 10.4632C8.69448 10.979 8.60533 11.6522 8.78971 12.4747C8.93943 13.1425 8.8499 13.7989 8.60686 14.4004C8.55634 14.5261 8.4982 14.6486 8.43276 14.7672L8.36533 14.8808C8.12571 15.232 8.43124 15.6971 8.84876 15.6168C9.09524 15.5695 9.49638 15.4396 10 15.1878C10.8232 14.7764 11.6427 14.165 12.4038 13.3166C12.4697 13.243 12.5352 13.1676 12.6 13.0907C13.4309 12.1025 13.2069 10.6811 12.2023 9.90972C11.349 9.25372 10.1432 9.28495 9.35238 9.97372L9.296 10.0251ZM11.6221 10.6648C12.2118 11.1181 12.3387 11.9219 11.8712 12.4773C11.813 12.5467 11.7543 12.6145 11.6949 12.6808L11.5585 12.8293C10.9653 13.4598 10.3413 13.9291 9.71809 14.2617L9.648 14.2975L9.66667 14.2339C9.824 13.656 9.86628 13.0427 9.74895 12.4122L9.71886 12.2663C9.584 11.6651 9.64267 11.2244 9.80952 10.9097C9.85524 10.824 9.89486 10.7718 9.91314 10.7516L9.93714 10.7291C10.3829 10.304 11.1112 10.272 11.6221 10.6644V10.6648Z" fill="#4F54D3"/>
<path d="M10.3627 11.6179C10.6491 11.5036 10.9604 11.4693 11.2735 11.571L11.3718 11.6076L11.4423 11.6381C11.491 11.6613 11.5356 11.6876 11.6449 11.755L11.696 11.7863C11.9596 11.9482 12.0122 11.9512 12.2613 11.7349C12.3086 11.6939 12.3635 11.6626 12.4228 11.6429C12.4822 11.6231 12.5449 11.6152 12.6073 11.6197C12.6697 11.6241 12.7306 11.6408 12.7865 11.6688C12.8425 11.6968 12.8924 11.7356 12.9333 11.7829C12.9743 11.8301 13.0056 11.885 13.0253 11.9444C13.0451 12.0037 13.053 12.0664 13.0485 12.1288C13.044 12.1912 13.0273 12.2521 12.9993 12.3081C12.9713 12.364 12.9326 12.4139 12.8853 12.4549C12.2994 12.9623 11.8187 12.9577 11.264 12.6377L11.051 12.5093C11.0392 12.5024 11.027 12.496 11.0145 12.4903L11.0004 12.4846C10.9192 12.4522 10.8194 12.4609 10.7158 12.5025L10.656 12.5299C10.6037 12.565 10.545 12.5894 10.4832 12.6017C10.4214 12.6139 10.3578 12.6138 10.296 12.6013C10.2343 12.5888 10.1756 12.5642 10.1235 12.5289C10.0713 12.4936 10.0267 12.4483 9.99217 12.3956C9.95765 12.3429 9.93393 12.2839 9.92237 12.2219C9.91082 12.16 9.91167 12.0964 9.92487 12.0348C9.93807 11.9732 9.96335 11.9149 9.99927 11.8631C10.0352 11.8114 10.081 11.7672 10.1341 11.7333C10.1863 11.699 10.2636 11.6571 10.3627 11.6179ZM11.8701 7.792L13.384 8.25866L13.1036 9.16914L11.5893 8.70209L11.8701 7.792ZM3.8019 8.92305C3.59311 8.92305 3.39287 9.00599 3.24524 9.15362C3.0976 9.30126 3.01466 9.50149 3.01466 9.71028C3.01466 9.91907 3.0976 10.1193 3.24524 10.2669C3.39287 10.4146 3.59311 10.4975 3.8019 10.4975C4.01069 10.4975 4.21093 10.4146 4.35856 10.2669C4.5062 10.1193 4.58914 9.91907 4.58914 9.71028C4.58914 9.50149 4.5062 9.30126 4.35856 9.15362C4.21093 9.00599 4.01069 8.92305 3.8019 8.92305ZM3.8019 9.54514C3.82425 9.54407 3.84659 9.54754 3.86757 9.55536C3.88854 9.56317 3.9077 9.57516 3.9239 9.5906C3.9401 9.60604 3.953 9.62461 3.96181 9.64518C3.97062 9.66576 3.97517 9.6879 3.97517 9.71028C3.97517 9.73266 3.97062 9.75481 3.96181 9.77538C3.953 9.79595 3.9401 9.81452 3.9239 9.82996C3.9077 9.8454 3.88854 9.85739 3.86757 9.86521C3.84659 9.87302 3.82425 9.8765 3.8019 9.87543C3.75947 9.87339 3.71946 9.8551 3.69015 9.82435C3.66085 9.7936 3.6445 9.75276 3.6445 9.71028C3.6445 9.66781 3.66085 9.62696 3.69015 9.59621C3.71946 9.56547 3.75947 9.54718 3.8019 9.54514ZM6.28952 10.1672C6.18615 10.1672 6.0838 10.1876 5.9883 10.2271C5.89279 10.2667 5.80602 10.3246 5.73292 10.3977C5.65983 10.4708 5.60184 10.5576 5.56228 10.6531C5.52272 10.7486 5.50236 10.8509 5.50236 10.9543C5.50236 11.0576 5.52272 11.16 5.56228 11.2555C5.60184 11.351 5.65983 11.4378 5.73292 11.5108C5.80602 11.5839 5.89279 11.6419 5.9883 11.6815C6.0838 11.721 6.18615 11.7413 6.28952 11.7413C6.49824 11.7413 6.6984 11.6584 6.84597 11.5108C6.99355 11.3632 7.07646 11.163 7.07646 10.9543C7.07646 10.7456 6.99355 10.5454 6.84597 10.3978C6.6984 10.2502 6.49824 10.1673 6.28952 10.1672ZM6.28952 10.7889C6.33337 10.7889 6.37542 10.8064 6.40643 10.8374C6.43743 10.8684 6.45485 10.9104 6.45485 10.9543C6.45485 10.9981 6.43743 11.0402 6.40643 11.0712C6.37542 11.1022 6.33337 11.1196 6.28952 11.1196C6.24567 11.1196 6.20362 11.1022 6.17261 11.0712C6.1416 11.0402 6.12419 10.9981 6.12419 10.9543C6.12419 10.9104 6.1416 10.8684 6.17261 10.8374C6.20362 10.8064 6.24567 10.7889 6.28952 10.7889ZM2.86857 6.43543C2.65978 6.43543 2.45954 6.51837 2.31191 6.666C2.16427 6.81364 2.08133 7.01388 2.08133 7.22266C2.08133 7.43145 2.16427 7.63169 2.31191 7.77933C2.45954 7.92696 2.65978 8.0099 2.86857 8.0099C3.07736 8.0099 3.27759 7.92696 3.42523 7.77933C3.57286 7.63169 3.65581 7.43145 3.65581 7.22266C3.65581 7.01388 3.57286 6.81364 3.42523 6.666C3.27759 6.51837 3.07736 6.43543 2.86857 6.43543ZM2.86857 7.05752C2.89092 7.05645 2.91326 7.05992 2.93423 7.06774C2.9552 7.07555 2.97437 7.08754 2.99057 7.10298C3.00677 7.11842 3.01967 7.13699 3.02848 7.15757C3.03729 7.17814 3.04183 7.20028 3.04183 7.22266C3.04183 7.24504 3.03729 7.26719 3.02848 7.28776C3.01967 7.30833 3.00677 7.3269 2.99057 7.34234C2.97437 7.35779 2.9552 7.36978 2.93423 7.37759C2.91326 7.38541 2.89092 7.38888 2.86857 7.38781C2.82614 7.38577 2.78613 7.36748 2.75682 7.33673C2.72752 7.30599 2.71117 7.26514 2.71117 7.22266C2.71117 7.18019 2.72752 7.13934 2.75682 7.1086C2.78613 7.07785 2.82614 7.05956 2.86857 7.05752ZM8.77752 3.94743C8.56873 3.94743 8.36849 4.03037 8.22086 4.178C8.07322 4.32564 7.99028 4.52588 7.99028 4.73466C7.99028 4.94345 8.07322 5.14369 8.22086 5.29133C8.36849 5.43896 8.56873 5.5219 8.77752 5.5219C8.98631 5.5219 9.18655 5.43896 9.33418 5.29133C9.48182 5.14369 9.56476 4.94345 9.56476 4.73466C9.56476 4.52588 9.48182 4.32564 9.33418 4.178C9.18655 4.03037 8.98631 3.94743 8.77752 3.94743ZM8.77752 4.56952C8.82132 4.56952 8.86332 4.58692 8.89429 4.61789C8.92526 4.64886 8.94266 4.69087 8.94266 4.73466C8.94266 4.77846 8.92526 4.82047 8.89429 4.85144C8.86332 4.88241 8.82132 4.89981 8.77752 4.89981C8.73372 4.89981 8.69172 4.88241 8.66075 4.85144C8.62978 4.82047 8.61238 4.77846 8.61238 4.73466C8.61238 4.69087 8.62978 4.64886 8.66075 4.61789C8.69172 4.58692 8.73372 4.56952 8.77752 4.56952Z" fill="#4F54D3"/>
</g>
<defs>
<clipPath id="clip0_38_2">
<rect width="16" height="16" fill="white"/>
</clipPath>
</defs>
</svg>
