<svg width="30" height="30" viewBox="0 0 30 30" fill="none" xmlns="http://www.w3.org/2000/svg">
<path d="M6.10133 11.7666L8.2327 10.3438C8.87176 9.91717 9.7011 10.1469 10.0851 10.8569C10.4691 11.5669 10.2623 12.4883 9.62324 12.9148L3.7325 16.8472L0.193021 10.3027C-0.190969 9.59267 0.0158137 8.67128 0.654846 8.24467C1.29391 7.81809 2.12325 8.04783 2.50721 8.75779L3.56499 10.7136C4.69432 6.50502 7.44975 2.97624 11.2257 1.19553C18.0868 -2.04009 26.0101 1.51794 28.9232 9.14231C31.8362 16.7667 28.6358 25.5705 21.7748 28.8061C16.8204 31.1425 11.1577 29.9738 7.2892 25.9648C6.74402 25.3998 6.71432 24.4508 7.22287 23.8451C7.73139 23.2394 8.58561 23.2064 9.13076 23.7714C12.2264 26.9794 16.7561 27.9143 20.7199 26.045C26.2082 23.4568 28.7684 16.414 26.4379 10.3143C24.1075 4.21463 17.7689 1.36831 12.2806 3.95657C9.20121 5.40877 6.97096 8.31267 6.10133 11.7666Z" fill="white"/>
</svg>
