<svg width="30" height="30" viewBox="0 0 30 30" fill="none" xmlns="http://www.w3.org/2000/svg">
<g clip-path="url(#clip0_2_71)">
<path d="M5 20C2.25 20 0 17.75 0 15C0 12.25 2.25 10 5 10C7.75 10 10 12.25 10 15C10 17.75 7.75 20 5 20ZM5 12.5C3.625 12.5 2.5 13.625 2.5 15C2.5 16.375 3.625 17.5 5 17.5C6.375 17.5 7.5 16.375 7.5 15C7.5 13.625 6.375 12.5 5 12.5Z" fill="white"/>
<path d="M25 10C22.25 10 20 7.75 20 5C20 2.25 22.25 0 25 0C27.75 0 30 2.25 30 5C30 7.75 27.75 10 25 10ZM25 2.5C23.625 2.5 22.5 3.625 22.5 5C22.5 6.375 23.625 7.5 25 7.5C26.375 7.5 27.5 6.375 27.5 5C27.5 3.625 26.375 2.5 25 2.5Z" fill="white"/>
<path d="M25 30C22.25 30 20 27.75 20 25C20 22.25 22.25 20 25 20C27.75 20 30 22.25 30 25C30 27.75 27.75 30 25 30ZM25 22.5C23.625 22.5 22.5 23.625 22.5 25C22.5 26.375 23.625 27.5 25 27.5C26.375 27.5 27.5 26.375 27.5 25C27.5 23.625 26.375 22.5 25 22.5Z" fill="white"/>
<path d="M8.96267 15.5832L22.2669 22.2353L21.1489 24.4713L7.84467 17.8192L8.96267 15.5832Z" fill="white"/>
<path d="M21.0373 5.5834L22.1553 7.8194L8.85112 14.4715L7.73312 12.2355L21.0373 5.5834Z" fill="white"/>
</g>
<defs>
<clipPath id="clip0_2_71">
<rect width="30" height="30" fill="white"/>
</clipPath>
</defs>
</svg>
